<?xml version="1.0" encoding="UTF-8" standalone="no"?>
<!DOCTYPE svg PUBLIC "-//W3C//DTD SVG 1.1//EN" "http://www.w3.org/Graphics/SVG/1.1/DTD/svg11.dtd">
<svg width="100%" height="100%" viewBox="0 0 793 425" version="1.1" xmlns="http://www.w3.org/2000/svg" xmlns:xlink="http://www.w3.org/1999/xlink" xml:space="preserve" xmlns:serif="http://www.serif.com/" style="fill-rule:evenodd;clip-rule:evenodd;stroke-linejoin:round;stroke-miterlimit:2;">
    <g transform="matrix(1,0,0,1,-83.6599,-147.946)">
        <path d="M83.66,150.584L83.66,569.416C83.66,570.873 84.841,572.054 86.299,572.054L873.701,572.054C875.159,572.054 876.34,570.873 876.34,569.416L876.34,150.584C876.34,149.127 875.159,147.946 873.701,147.946L86.299,147.946C84.841,147.946 83.66,149.127 83.66,150.584ZM482.639,153.223L482.639,290.871C519.596,292.257 549.179,322.701 549.179,360C549.179,397.299 519.596,427.743 482.639,429.129L482.639,566.777L871.062,566.777L871.062,533.589L815.99,533.589L815.99,533.589C720.119,533.589 642.401,455.871 642.401,360C642.401,264.129 720.119,186.411 815.99,186.411L871.062,186.411L871.062,153.223L482.639,153.223ZM88.938,186.411L144.01,186.411C239.881,186.411 317.599,264.129 317.599,360C317.599,455.871 239.881,533.589 144.01,533.589L88.938,533.589L88.938,566.777L477.361,566.777L477.361,429.129C440.404,427.743 410.821,397.299 410.821,360C410.821,322.701 440.404,292.257 477.361,290.871L477.361,153.223L88.938,153.223L88.938,186.411ZM871.062,528.311L871.062,430.177L818.629,430.177L818.629,528.311L871.062,528.311ZM141.371,430.177L88.938,430.177L88.938,528.311L141.371,528.311L141.371,430.177ZM146.649,291.819L234.978,291.819C236.436,291.819 237.617,293.001 237.617,294.458L237.617,427.538C237.617,428.995 236.436,430.177 234.978,430.177L146.649,430.177L146.649,528.291L146.649,528.291C238.388,526.881 312.322,452.075 312.322,360C312.322,267.925 238.388,193.119 146.649,191.709L146.649,291.819ZM813.351,291.819L813.351,191.709C721.612,193.119 647.678,267.925 647.678,360C647.678,452.075 721.612,526.881 813.351,528.291L813.351,528.291L813.351,430.177L725.022,430.177C723.564,430.177 722.383,428.995 722.383,427.538L722.383,294.458C722.383,293.001 723.564,291.819 725.022,291.819L813.351,291.819ZM871.062,297.097L818.629,297.097L818.629,424.899L871.062,424.899L871.062,297.097ZM146.649,297.097L232.339,297.097L232.339,424.899L146.649,424.899L146.649,297.097ZM813.351,297.097L813.351,424.899L727.661,424.899C727.661,424.899 727.661,297.097 727.661,297.097L813.351,297.097ZM141.371,297.097L141.371,424.899L88.938,424.899C88.938,424.899 88.938,297.097 88.938,297.097L141.371,297.097ZM477.361,296.153L477.361,423.847C443.313,422.459 416.099,394.383 416.099,360C416.099,325.617 443.313,297.541 477.361,296.153ZM482.639,296.153C516.687,297.541 543.901,325.617 543.901,360C543.901,394.383 516.687,422.459 482.639,423.847L482.639,296.153ZM871.062,291.819L871.062,191.689L818.629,191.689L818.629,291.819L871.062,291.819ZM141.371,191.689L88.938,191.689L88.938,291.819L141.371,291.819L141.371,191.689Z"/>
    </g>
</svg>
