<?xml version="1.0" encoding="UTF-8" standalone="no"?>
<!DOCTYPE svg PUBLIC "-//W3C//DTD SVG 1.1//EN" "http://www.w3.org/Graphics/SVG/1.1/DTD/svg11.dtd">
<svg width="100%" height="100%" viewBox="0 0 412 281" version="1.1" xmlns="http://www.w3.org/2000/svg" xmlns:xlink="http://www.w3.org/1999/xlink" xml:space="preserve" xmlns:serif="http://www.serif.com/" style="fill-rule:evenodd;clip-rule:evenodd;stroke-linejoin:round;stroke-miterlimit:2;">
    <g id="Basketball" transform="matrix(0.552316,2.77556e-17,-2.77556e-17,0.552316,65.0091,-1.98079)">
        <g id="_6" serif:id="6">
            <path id="Fill-3" d="M255.201,26.345C195.695,26.345 136.181,48.837 90.872,93.828C0.264,183.801 0.264,330.201 90.872,420.175C181.489,510.156 328.914,510.156 419.531,420.175C510.139,330.201 510.139,183.801 419.531,93.828C374.222,48.837 314.708,26.345 255.201,26.345M255.201,510.414C189.818,510.414 124.443,485.699 74.664,436.269C-24.885,337.425 -24.885,176.577 74.664,77.725C174.214,-21.127 336.189,-21.127 435.739,77.725C535.288,176.577 535.288,337.425 435.739,436.269C385.96,485.699 320.585,510.414 255.201,510.414" style="fill:white;"/>
            <path id="Fill-8" d="M142.739,145.327L142.815,145.327L142.739,145.327ZM123.642,447.187C215.939,510.313 340.057,499.09 419.532,420.18C499.007,341.255 510.317,218.007 446.729,126.364C354.424,63.229 230.306,74.46 150.847,153.378C71.364,232.295 60.062,355.543 123.642,447.187ZM255.195,510.685C204.309,510.685 153.147,495.562 108.824,464.685C107.732,463.926 106.784,462.985 106.02,461.9C34.753,361.022 46.788,224.502 134.631,137.275C222.466,50.064 359.957,38.105 461.554,108.865C462.639,109.624 463.587,110.565 464.351,111.65C535.618,212.52 523.583,349.048 435.74,436.275C386.229,485.439 320.938,510.685 255.195,510.685Z" style="fill:white;"/>
            <path id="Fill-10" d="M427.635,439.607C424.7,439.607 421.766,438.5 419.527,436.276L74.668,93.827C70.19,89.38 70.19,82.171 74.668,77.732C79.138,73.285 86.398,73.285 90.876,77.732L435.743,420.174C440.213,424.621 440.213,431.83 435.743,436.276C433.504,438.5 430.569,439.607 427.635,439.607" style="fill:white;"/>
            <path id="Fill-12" d="M247.179,510.34C244.94,510.34 242.686,509.695 240.706,508.344C189.659,473.597 173.291,444.019 137.71,322.189C105.065,210.422 28.792,208.222 25.559,208.184C19.255,208.108 14.166,202.993 14.204,196.726C14.25,190.473 19.339,185.419 25.636,185.419L25.644,185.419C29.556,185.427 122.091,186.975 159.726,315.846C195.811,439.405 210.659,460.295 253.667,489.571C258.886,493.122 260.224,500.209 256.64,505.392C254.416,508.61 250.832,510.34 247.179,510.34" style="fill:white;"/>
            <path id="Fill-14" d="M498.873,260.424C495.22,260.424 491.636,258.694 489.412,255.477C459.93,212.77 438.893,198.026 314.461,162.194C184.681,124.815 183.114,32.944 183.114,29.051C183.106,22.768 188.242,17.669 194.569,17.661L194.577,17.661C200.881,17.661 206.009,22.723 206.039,28.983C206.085,32.36 208.424,107.954 320.85,140.333C443.546,175.664 473.326,191.918 508.318,242.607C511.902,247.79 510.565,254.877 505.346,258.428C503.366,259.779 501.112,260.424 498.873,260.424" style="fill:white;"/>
        </g>
        <g transform="matrix(1.22877,0.709433,-0.709433,1.22877,122.215,-234.56)">
            <path d="M277.227,292.829C251.32,307.775 224.791,321.656 199.695,333.314C133.653,363.908 76.775,378.702 64.263,357.028C61.143,351.579 61.614,344.578 65.267,336.42C68.556,329.053 74.49,320.561 82.695,311.307C81.372,307.166 80.214,303.028 79.21,298.856C58.904,318.095 43.683,336.085 34.797,351.61C26.15,366.678 23.595,379.038 28.403,387.378C37.521,403.177 70.959,403.512 117.611,391.274C165.632,378.672 227.03,352.615 290.376,316.025L290.545,315.934C353.983,279.313 407.33,239.132 442.274,203.821C476.109,169.637 492.534,140.565 483.585,124.766L483.522,124.645C478.697,116.274 466.673,112.286 449.308,112.255C431.438,112.225 408.229,116.395 381.442,124.34C384.544,127.322 387.559,130.399 390.464,133.594C402.536,131.158 412.809,130.245 420.8,131.037C429.781,131.95 436.126,135.055 439.278,140.504C451.79,162.178 410.556,204.033 351.028,245.92C328.412,261.84 303.116,277.883 277.227,292.829Z" style="fill:white;"/>
        </g>
    </g>
</svg>
